<?xml version="1.0" encoding="UTF-8"?>
<svg xmlns="http://www.w3.org/2000/svg" xmlns:xlink="http://www.w3.org/1999/xlink" width="200px" height="200px" viewBox="0 0 384 384" version="1.1">
<g id="surface1">
<path style=" stroke:none;fill-rule:nonzero;fill:rgb(0%,0%,0%);fill-opacity:1;" d="M 166.875 25.875 C 131.101562 30.898438 102 45.449219 75.148438 71.625 C 59.699219 86.625 50.324219 99.148438 41.324219 117 C 33.148438 133.050781 27.976562 149.851562 25.351562 168.75 C 23.925781 179.476562 24.148438 206.773438 25.800781 217.875 C 31.351562 254.699219 47.550781 285.675781 75.449219 312.75 C 108.148438 344.398438 145.800781 359.550781 192 359.550781 C 219.601562 359.550781 242.023438 354.675781 264.824219 343.574219 C 296.398438 328.273438 324.300781 301.199219 341.476562 269.25 C 349.351562 254.625 355.351562 235.800781 358.199219 217.125 C 360.074219 204.601562 360.074219 179.398438 358.199219 166.875 C 352.800781 130.875 338.175781 101.699219 312.449219 75.074219 C 285.449219 47.25 251.25 30 214.5 25.5 C 205.875 24.449219 175.125 24.675781 166.875 25.875 Z M 217.125 32.550781 C 233.101562 34.875 252.074219 41.023438 266.101562 48.449219 C 295.199219 63.75 322.5 91.648438 337.351562 121.199219 C 357 160.425781 358.425781 213.523438 340.875 254.925781 C 324.898438 292.574219 289.726562 327.074219 252.375 341.851562 C 213.300781 357.226562 168.074219 356.925781 129.375 340.875 C 102 329.625 73.949219 306 55.875 279 C 47.699219 266.773438 39.300781 247.5 35.25 231.824219 C 30 211.050781 29.324219 180.976562 33.75 159 C 40.199219 126.898438 55.425781 100.125 81.226562 75.300781 C 109.351562 48.226562 138.226562 35.324219 179.625 31.199219 C 185.476562 30.601562 209.699219 31.5 217.125 32.550781 Z M 217.125 32.550781 "/>
<path style=" stroke:none;fill-rule:nonzero;fill:rgb(0%,0%,0%);fill-opacity:1;" d="M 144.375 116.398438 C 143.550781 116.773438 131.25 131.625 117 149.324219 C 94.351562 177.449219 91.125 181.800781 91.125 184.050781 C 91.125 186.375 96.074219 192.300781 142.125 245.175781 C 192.75 303.375 193.125 303.824219 195.75 303.601562 C 198.226562 303.375 201.523438 299.699219 249.523438 244.574219 C 286.5 202.125 300.75 185.25 300.75 183.976562 C 300.75 182.773438 292.425781 171.898438 274.125 149.324219 C 259.5 131.25 247.050781 116.25 246.449219 116.023438 C 245.851562 115.800781 233.773438 115.875 219.601562 116.25 C 205.425781 116.625 189.523438 116.773438 184.125 116.625 C 158.625 115.726562 145.800781 115.648438 144.375 116.398438 Z M 225.148438 126.75 L 234.75 126.75 L 229.5 137.25 L 162 137.25 L 156.75 126.75 L 171.523438 126.523438 C 179.699219 126.375 192.898438 126.375 200.925781 126.523438 C 208.949219 126.601562 219.824219 126.75 225.148438 126.75 Z M 151.050781 136.949219 L 153.898438 141.976562 L 151.273438 150.675781 C 148.949219 158.324219 147.675781 164.023438 144.675781 179.851562 L 143.851562 183.824219 L 138.148438 183.300781 C 121.800781 182.023438 108.523438 180.75 108.300781 180.523438 C 107.925781 180.226562 147.074219 132 147.675781 132 C 147.976562 132 149.476562 134.25 151.050781 136.949219 Z M 256.199219 146.773438 C 274.199219 168.976562 282.898438 180.300781 282.226562 180.523438 C 281.476562 180.75 261.148438 182.773438 253.125 183.449219 L 247.125 183.898438 L 245.699219 175.800781 C 244.949219 171.300781 243.148438 163.050781 241.726562 157.5 C 240.300781 151.949219 238.800781 146.023438 238.351562 144.375 C 237.675781 141.601562 237.824219 141 240.375 136.648438 C 241.949219 134.101562 243.375 132 243.675781 132 C 243.976562 132 249.601562 138.675781 256.199219 146.773438 Z M 227.925781 149.925781 C 229.875 153.523438 236.773438 183.449219 235.875 184.351562 C 234.375 185.851562 169.050781 186.148438 158.398438 184.726562 L 155.101562 184.273438 L 155.625 180.523438 C 156.449219 174.898438 159.449219 162.074219 161.625 154.800781 L 163.574219 148.5 L 195.375 148.5 C 225.75 148.5 227.25 148.574219 227.925781 149.925781 Z M 128.625 192.375 C 136.425781 193.050781 142.875 193.648438 142.949219 193.726562 C 143.023438 193.800781 146.25 200.773438 150.074219 209.25 C 153.898438 217.726562 162.449219 235.425781 168.976562 248.625 C 175.5 261.824219 180.375 272.101562 179.773438 271.5 C 179.175781 270.898438 168.449219 258.523438 155.925781 244.125 C 143.398438 229.648438 128.25 212.324219 122.25 205.5 C 107.773438 189 108.675781 190.273438 111.824219 190.800781 C 113.25 191.023438 120.75 191.773438 128.625 192.375 Z M 279.601562 192.523438 C 279 193.273438 269.773438 204 259.050781 216.375 C 248.398438 228.75 237.75 241.050781 235.5 243.75 C 231.675781 248.25 212.175781 270.898438 210.601562 272.625 C 210.226562 273 215.25 262.574219 221.773438 249.375 C 228.300781 236.175781 236.851562 218.476562 240.675781 210 C 244.574219 201.523438 247.949219 194.324219 248.25 194.023438 C 248.773438 193.425781 269.398438 191.550781 277.425781 191.324219 C 280.5 191.25 280.648438 191.324219 279.601562 192.523438 Z M 198.601562 195.226562 C 218.851562 195.226562 235.5 195.300781 235.5 195.375 C 235.5 197.324219 202.949219 268.351562 196.351562 280.800781 C 195.675781 282.074219 195 281.175781 191.398438 274.050781 C 181.648438 254.773438 155.25 196.648438 155.25 194.550781 C 155.25 194.324219 156.675781 194.398438 158.476562 194.699219 C 160.199219 195.074219 178.273438 195.300781 198.601562 195.226562 Z M 198.601562 195.226562 "/>
</g>
</svg>
